<mxfile host="Electron" modified="2023-09-30T08:07:08.056Z" agent="Mozilla/5.0 (Windows NT 10.0; Win64; x64) AppleWebKit/537.36 (KHTML, like Gecko) draw.io/21.7.5 Chrome/114.0.5735.289 Electron/25.8.1 Safari/537.36" etag="IkL3KeN7BzjeCV9d17En" version="21.7.5" type="device">
  <diagram id="C5RBs43oDa-KdzZeNtuy" name="Page-1">
    <mxGraphModel dx="7277" dy="4274" grid="1" gridSize="10" guides="1" tooltips="1" connect="1" arrows="1" fold="1" page="1" pageScale="1" pageWidth="827" pageHeight="1169" math="0" shadow="0">
      <root>
        <mxCell id="WIyWlLk6GJQsqaUBKTNV-0" />
        <mxCell id="WIyWlLk6GJQsqaUBKTNV-1" parent="WIyWlLk6GJQsqaUBKTNV-0" />
        <mxCell id="E47bJIEnCqPPnaEcUkM_-0" value="&lt;font style=&quot;font-size: 48px;&quot;&gt;TÀI KHOẢN&lt;/font&gt;" style="rounded=0;whiteSpace=wrap;html=1;" parent="WIyWlLk6GJQsqaUBKTNV-1" vertex="1">
          <mxGeometry x="-166" y="225" width="310" height="145" as="geometry" />
        </mxCell>
        <mxCell id="E47bJIEnCqPPnaEcUkM_-1" value="&lt;font style=&quot;font-size: 36px;&quot;&gt;USERNAME&lt;/font&gt;" style="ellipse;whiteSpace=wrap;html=1;" parent="WIyWlLk6GJQsqaUBKTNV-1" vertex="1">
          <mxGeometry x="-650" y="110" width="340" height="175" as="geometry" />
        </mxCell>
        <mxCell id="E47bJIEnCqPPnaEcUkM_-2" value="&lt;font style=&quot;font-size: 36px;&quot;&gt;PASSWORD&lt;/font&gt;" style="ellipse;whiteSpace=wrap;html=1;" parent="WIyWlLk6GJQsqaUBKTNV-1" vertex="1">
          <mxGeometry x="-410" y="-40" width="341" height="170" as="geometry" />
        </mxCell>
        <mxCell id="E47bJIEnCqPPnaEcUkM_-3" value="" style="endArrow=none;html=1;rounded=0;exitX=0.25;exitY=0;exitDx=0;exitDy=0;entryX=1;entryY=1;entryDx=0;entryDy=0;" parent="WIyWlLk6GJQsqaUBKTNV-1" source="E47bJIEnCqPPnaEcUkM_-0" target="E47bJIEnCqPPnaEcUkM_-1" edge="1">
          <mxGeometry width="50" height="50" relative="1" as="geometry">
            <mxPoint x="150" y="390" as="sourcePoint" />
            <mxPoint x="200" y="340" as="targetPoint" />
          </mxGeometry>
        </mxCell>
        <mxCell id="E47bJIEnCqPPnaEcUkM_-4" value="" style="endArrow=none;html=1;rounded=0;exitX=0.25;exitY=0;exitDx=0;exitDy=0;entryX=0.5;entryY=1;entryDx=0;entryDy=0;" parent="WIyWlLk6GJQsqaUBKTNV-1" source="E47bJIEnCqPPnaEcUkM_-0" target="E47bJIEnCqPPnaEcUkM_-2" edge="1">
          <mxGeometry width="50" height="50" relative="1" as="geometry">
            <mxPoint x="-180" y="260" as="sourcePoint" />
            <mxPoint x="-258" y="188" as="targetPoint" />
          </mxGeometry>
        </mxCell>
        <mxCell id="E47bJIEnCqPPnaEcUkM_-5" value="&lt;font style=&quot;font-size: 48px;&quot;&gt;NHÂN VIÊN&lt;/font&gt;" style="rounded=0;whiteSpace=wrap;html=1;" parent="WIyWlLk6GJQsqaUBKTNV-1" vertex="1">
          <mxGeometry x="786" y="228" width="310" height="140" as="geometry" />
        </mxCell>
        <mxCell id="E47bJIEnCqPPnaEcUkM_-6" value="&lt;u&gt;&lt;font style=&quot;font-size: 36px;&quot;&gt;MÃ NHÂN VIÊN&lt;/font&gt;&lt;/u&gt;" style="ellipse;whiteSpace=wrap;html=1;" parent="WIyWlLk6GJQsqaUBKTNV-1" vertex="1">
          <mxGeometry x="416" y="38" width="310" height="140" as="geometry" />
        </mxCell>
        <mxCell id="E47bJIEnCqPPnaEcUkM_-7" value="&lt;font style=&quot;font-size: 36px;&quot;&gt;(TÊN NHÂN VIÊN)&lt;/font&gt;" style="ellipse;whiteSpace=wrap;html=1;" parent="WIyWlLk6GJQsqaUBKTNV-1" vertex="1">
          <mxGeometry x="516" y="-142" width="332" height="140" as="geometry" />
        </mxCell>
        <mxCell id="E47bJIEnCqPPnaEcUkM_-8" value="&lt;font style=&quot;font-size: 36px;&quot;&gt;HỌ VÀ TÊN ĐỆM&lt;/font&gt;" style="ellipse;whiteSpace=wrap;html=1;" parent="WIyWlLk6GJQsqaUBKTNV-1" vertex="1">
          <mxGeometry x="190" y="-252" width="340" height="150" as="geometry" />
        </mxCell>
        <mxCell id="E47bJIEnCqPPnaEcUkM_-9" value="&lt;font style=&quot;font-size: 36px;&quot;&gt;TÊN&lt;/font&gt;" style="ellipse;whiteSpace=wrap;html=1;" parent="WIyWlLk6GJQsqaUBKTNV-1" vertex="1">
          <mxGeometry x="426" y="-392" width="347" height="120" as="geometry" />
        </mxCell>
        <mxCell id="E47bJIEnCqPPnaEcUkM_-10" value="&lt;span style=&quot;font-size: 36px;&quot;&gt;EMAIL&lt;/span&gt;" style="ellipse;whiteSpace=wrap;html=1;" parent="WIyWlLk6GJQsqaUBKTNV-1" vertex="1">
          <mxGeometry x="736" y="-292" width="323" height="130" as="geometry" />
        </mxCell>
        <mxCell id="E47bJIEnCqPPnaEcUkM_-11" value="&lt;font style=&quot;font-size: 36px;&quot;&gt;LEVEL&lt;/font&gt;" style="ellipse;whiteSpace=wrap;html=1;" parent="WIyWlLk6GJQsqaUBKTNV-1" vertex="1">
          <mxGeometry x="1016" y="-192" width="300" height="120" as="geometry" />
        </mxCell>
        <mxCell id="E47bJIEnCqPPnaEcUkM_-12" value="&lt;font style=&quot;font-size: 36px;&quot;&gt;ĐỊA CHỈ&lt;/font&gt;" style="ellipse;whiteSpace=wrap;html=1;" parent="WIyWlLk6GJQsqaUBKTNV-1" vertex="1">
          <mxGeometry x="1166" y="-32" width="310" height="120" as="geometry" />
        </mxCell>
        <mxCell id="E47bJIEnCqPPnaEcUkM_-13" value="&lt;font style=&quot;font-size: 36px;&quot;&gt;SĐT&lt;/font&gt;" style="ellipse;whiteSpace=wrap;html=1;" parent="WIyWlLk6GJQsqaUBKTNV-1" vertex="1">
          <mxGeometry x="1246" y="123" width="300" height="120" as="geometry" />
        </mxCell>
        <mxCell id="E47bJIEnCqPPnaEcUkM_-14" value="" style="endArrow=none;html=1;rounded=0;entryX=0.5;entryY=0;entryDx=0;entryDy=0;exitX=1;exitY=1;exitDx=0;exitDy=0;" parent="WIyWlLk6GJQsqaUBKTNV-1" source="E47bJIEnCqPPnaEcUkM_-6" target="E47bJIEnCqPPnaEcUkM_-5" edge="1">
          <mxGeometry width="50" height="50" relative="1" as="geometry">
            <mxPoint x="506" y="-2" as="sourcePoint" />
            <mxPoint x="556" y="-52" as="targetPoint" />
          </mxGeometry>
        </mxCell>
        <mxCell id="E47bJIEnCqPPnaEcUkM_-15" value="" style="endArrow=none;html=1;rounded=0;exitX=1;exitY=1;exitDx=0;exitDy=0;entryX=0.5;entryY=0;entryDx=0;entryDy=0;" parent="WIyWlLk6GJQsqaUBKTNV-1" source="E47bJIEnCqPPnaEcUkM_-7" target="E47bJIEnCqPPnaEcUkM_-5" edge="1">
          <mxGeometry width="50" height="50" relative="1" as="geometry">
            <mxPoint x="238" y="216" as="sourcePoint" />
            <mxPoint x="466" y="208" as="targetPoint" />
          </mxGeometry>
        </mxCell>
        <mxCell id="E47bJIEnCqPPnaEcUkM_-16" value="" style="endArrow=none;html=1;rounded=0;exitX=1;exitY=1;exitDx=0;exitDy=0;entryX=0;entryY=0;entryDx=0;entryDy=0;" parent="WIyWlLk6GJQsqaUBKTNV-1" source="E47bJIEnCqPPnaEcUkM_-8" target="E47bJIEnCqPPnaEcUkM_-7" edge="1">
          <mxGeometry width="50" height="50" relative="1" as="geometry">
            <mxPoint x="358" y="136" as="sourcePoint" />
            <mxPoint x="466" y="248" as="targetPoint" />
          </mxGeometry>
        </mxCell>
        <mxCell id="E47bJIEnCqPPnaEcUkM_-17" value="" style="endArrow=none;html=1;rounded=0;exitX=0.5;exitY=1;exitDx=0;exitDy=0;entryX=0.5;entryY=0;entryDx=0;entryDy=0;" parent="WIyWlLk6GJQsqaUBKTNV-1" source="E47bJIEnCqPPnaEcUkM_-9" target="E47bJIEnCqPPnaEcUkM_-7" edge="1">
          <mxGeometry width="50" height="50" relative="1" as="geometry">
            <mxPoint x="368" y="146" as="sourcePoint" />
            <mxPoint x="476" y="258" as="targetPoint" />
          </mxGeometry>
        </mxCell>
        <mxCell id="E47bJIEnCqPPnaEcUkM_-18" value="" style="endArrow=none;html=1;rounded=0;exitX=0.5;exitY=1;exitDx=0;exitDy=0;entryX=0.5;entryY=0;entryDx=0;entryDy=0;" parent="WIyWlLk6GJQsqaUBKTNV-1" source="E47bJIEnCqPPnaEcUkM_-10" target="E47bJIEnCqPPnaEcUkM_-5" edge="1">
          <mxGeometry width="50" height="50" relative="1" as="geometry">
            <mxPoint x="378" y="156" as="sourcePoint" />
            <mxPoint x="426" y="138" as="targetPoint" />
          </mxGeometry>
        </mxCell>
        <mxCell id="E47bJIEnCqPPnaEcUkM_-19" value="" style="endArrow=none;html=1;rounded=0;exitX=0.5;exitY=1;exitDx=0;exitDy=0;entryX=0.5;entryY=0;entryDx=0;entryDy=0;" parent="WIyWlLk6GJQsqaUBKTNV-1" source="E47bJIEnCqPPnaEcUkM_-11" target="E47bJIEnCqPPnaEcUkM_-5" edge="1">
          <mxGeometry width="50" height="50" relative="1" as="geometry">
            <mxPoint x="388" y="166" as="sourcePoint" />
            <mxPoint x="496" y="278" as="targetPoint" />
          </mxGeometry>
        </mxCell>
        <mxCell id="E47bJIEnCqPPnaEcUkM_-20" value="" style="endArrow=none;html=1;rounded=0;exitX=0;exitY=1;exitDx=0;exitDy=0;entryX=0.5;entryY=0;entryDx=0;entryDy=0;" parent="WIyWlLk6GJQsqaUBKTNV-1" source="E47bJIEnCqPPnaEcUkM_-12" target="E47bJIEnCqPPnaEcUkM_-5" edge="1">
          <mxGeometry width="50" height="50" relative="1" as="geometry">
            <mxPoint x="398" y="176" as="sourcePoint" />
            <mxPoint x="506" y="288" as="targetPoint" />
          </mxGeometry>
        </mxCell>
        <mxCell id="E47bJIEnCqPPnaEcUkM_-21" value="" style="endArrow=none;html=1;rounded=0;exitX=0;exitY=0.5;exitDx=0;exitDy=0;entryX=0.5;entryY=0;entryDx=0;entryDy=0;" parent="WIyWlLk6GJQsqaUBKTNV-1" source="E47bJIEnCqPPnaEcUkM_-13" target="E47bJIEnCqPPnaEcUkM_-5" edge="1">
          <mxGeometry width="50" height="50" relative="1" as="geometry">
            <mxPoint x="408" y="186" as="sourcePoint" />
            <mxPoint x="516" y="298" as="targetPoint" />
          </mxGeometry>
        </mxCell>
        <mxCell id="E47bJIEnCqPPnaEcUkM_-28" value="" style="group" parent="WIyWlLk6GJQsqaUBKTNV-1" vertex="1" connectable="0">
          <mxGeometry x="798" y="1121" width="290" height="170" as="geometry" />
        </mxCell>
        <mxCell id="E47bJIEnCqPPnaEcUkM_-24" value="&lt;font style=&quot;font-size: 48px;&quot;&gt;NHIỆM VỤ&lt;/font&gt;" style="rounded=0;whiteSpace=wrap;html=1;movable=1;resizable=1;rotatable=1;deletable=1;editable=1;locked=0;connectable=1;" parent="E47bJIEnCqPPnaEcUkM_-28" vertex="1">
          <mxGeometry width="290" height="170" as="geometry" />
        </mxCell>
        <mxCell id="E47bJIEnCqPPnaEcUkM_-48" value="&lt;font style=&quot;font-size: 36px;&quot;&gt;CV TIÊN QUYẾT&lt;/font&gt;" style="ellipse;whiteSpace=wrap;html=1;rounded=0;strokeColor=default;fontFamily=Helvetica;fontSize=12;fontColor=default;fillColor=default;" parent="WIyWlLk6GJQsqaUBKTNV-1" vertex="1">
          <mxGeometry x="960" y="1700" width="350" height="190" as="geometry" />
        </mxCell>
        <mxCell id="E47bJIEnCqPPnaEcUkM_-49" value="&lt;font style=&quot;font-size: 36px;&quot;&gt;TRẠNG THÁI&lt;/font&gt;" style="ellipse;whiteSpace=wrap;html=1;rounded=0;strokeColor=default;fontFamily=Helvetica;fontSize=12;fontColor=default;fillColor=default;" parent="WIyWlLk6GJQsqaUBKTNV-1" vertex="1">
          <mxGeometry x="490" y="1690" width="358" height="190" as="geometry" />
        </mxCell>
        <mxCell id="E47bJIEnCqPPnaEcUkM_-50" value="&lt;font style=&quot;font-size: 36px;&quot;&gt;MA NHIEM VU&lt;/font&gt;" style="ellipse;whiteSpace=wrap;html=1;rounded=0;strokeColor=default;fontFamily=Helvetica;fontSize=12;fontColor=default;fillColor=default;" parent="WIyWlLk6GJQsqaUBKTNV-1" vertex="1">
          <mxGeometry x="1270" y="1319" width="341" height="161" as="geometry" />
        </mxCell>
        <mxCell id="E47bJIEnCqPPnaEcUkM_-51" value="&lt;span style=&quot;font-size: 36px;&quot;&gt;THỜI GIAN ƯỚC TÍNH (HRS)&lt;/span&gt;" style="ellipse;whiteSpace=wrap;html=1;rounded=0;strokeColor=default;fontFamily=Helvetica;fontSize=12;fontColor=default;fillColor=default;" parent="WIyWlLk6GJQsqaUBKTNV-1" vertex="1">
          <mxGeometry x="130" y="1230" width="410" height="200" as="geometry" />
        </mxCell>
        <mxCell id="E47bJIEnCqPPnaEcUkM_-52" value="&lt;span style=&quot;font-size: 36px;&quot;&gt;THỜI GIAN LÀM THỰC TẾ (HRS)&lt;/span&gt;" style="ellipse;whiteSpace=wrap;html=1;rounded=0;strokeColor=default;fontFamily=Helvetica;fontSize=12;fontColor=default;fillColor=default;" parent="WIyWlLk6GJQsqaUBKTNV-1" vertex="1">
          <mxGeometry x="200" y="1470" width="420" height="210" as="geometry" />
        </mxCell>
        <mxCell id="E47bJIEnCqPPnaEcUkM_-53" value="" style="endArrow=none;html=1;rounded=0;fontFamily=Helvetica;fontSize=12;fontColor=default;entryX=0.75;entryY=1;entryDx=0;entryDy=0;exitX=0;exitY=0;exitDx=0;exitDy=0;" parent="WIyWlLk6GJQsqaUBKTNV-1" source="E47bJIEnCqPPnaEcUkM_-47" target="E47bJIEnCqPPnaEcUkM_-24" edge="1">
          <mxGeometry width="50" height="50" relative="1" as="geometry">
            <mxPoint x="599" y="1170" as="sourcePoint" />
            <mxPoint x="966.5" y="1339.999999999999" as="targetPoint" />
          </mxGeometry>
        </mxCell>
        <mxCell id="E47bJIEnCqPPnaEcUkM_-54" value="" style="endArrow=none;html=1;rounded=0;fontFamily=Helvetica;fontSize=12;fontColor=default;entryX=0.5;entryY=1;entryDx=0;entryDy=0;exitX=0;exitY=0;exitDx=0;exitDy=0;" parent="WIyWlLk6GJQsqaUBKTNV-1" source="E47bJIEnCqPPnaEcUkM_-48" target="E47bJIEnCqPPnaEcUkM_-24" edge="1">
          <mxGeometry width="50" height="50" relative="1" as="geometry">
            <mxPoint x="641" y="1342" as="sourcePoint" />
            <mxPoint x="894" y="1339.999999999999" as="targetPoint" />
          </mxGeometry>
        </mxCell>
        <mxCell id="E47bJIEnCqPPnaEcUkM_-55" value="" style="endArrow=none;html=1;rounded=0;fontFamily=Helvetica;fontSize=12;fontColor=default;entryX=1;entryY=1;entryDx=0;entryDy=0;exitX=0;exitY=0;exitDx=0;exitDy=0;" parent="WIyWlLk6GJQsqaUBKTNV-1" source="E47bJIEnCqPPnaEcUkM_-50" target="E47bJIEnCqPPnaEcUkM_-24" edge="1">
          <mxGeometry width="50" height="50" relative="1" as="geometry">
            <mxPoint x="651" y="1352" as="sourcePoint" />
            <mxPoint x="1039" y="1339.999999999999" as="targetPoint" />
          </mxGeometry>
        </mxCell>
        <mxCell id="E47bJIEnCqPPnaEcUkM_-56" value="" style="endArrow=none;html=1;rounded=0;fontFamily=Helvetica;fontSize=12;fontColor=default;entryX=0.25;entryY=1;entryDx=0;entryDy=0;exitX=1;exitY=0.5;exitDx=0;exitDy=0;" parent="WIyWlLk6GJQsqaUBKTNV-1" source="E47bJIEnCqPPnaEcUkM_-52" target="E47bJIEnCqPPnaEcUkM_-24" edge="1">
          <mxGeometry width="50" height="50" relative="1" as="geometry">
            <mxPoint x="487" y="1793" as="sourcePoint" />
            <mxPoint x="749" y="1339.999999999999" as="targetPoint" />
          </mxGeometry>
        </mxCell>
        <mxCell id="E47bJIEnCqPPnaEcUkM_-57" value="" style="endArrow=none;html=1;rounded=0;fontFamily=Helvetica;fontSize=12;fontColor=default;entryX=1;entryY=0.5;entryDx=0;entryDy=0;exitX=0;exitY=1;exitDx=0;exitDy=0;" parent="WIyWlLk6GJQsqaUBKTNV-1" source="E47bJIEnCqPPnaEcUkM_-24" target="E47bJIEnCqPPnaEcUkM_-51" edge="1">
          <mxGeometry width="50" height="50" relative="1" as="geometry">
            <mxPoint x="749" y="1297.499999999999" as="sourcePoint" />
            <mxPoint x="625" y="1680" as="targetPoint" />
          </mxGeometry>
        </mxCell>
        <mxCell id="E47bJIEnCqPPnaEcUkM_-58" value="" style="endArrow=none;html=1;rounded=0;fontFamily=Helvetica;fontSize=12;fontColor=default;entryX=0.5;entryY=1;entryDx=0;entryDy=0;exitX=1;exitY=0;exitDx=0;exitDy=0;" parent="WIyWlLk6GJQsqaUBKTNV-1" source="E47bJIEnCqPPnaEcUkM_-49" target="E47bJIEnCqPPnaEcUkM_-24" edge="1">
          <mxGeometry width="50" height="50" relative="1" as="geometry">
            <mxPoint x="681" y="1382" as="sourcePoint" />
            <mxPoint x="821.5" y="1339.999999999999" as="targetPoint" />
          </mxGeometry>
        </mxCell>
        <mxCell id="E47bJIEnCqPPnaEcUkM_-59" value="&lt;font style=&quot;font-size: 48px;&quot;&gt;DỰ ÁN&lt;/font&gt;" style="rounded=0;whiteSpace=wrap;html=1;" parent="WIyWlLk6GJQsqaUBKTNV-1" vertex="1">
          <mxGeometry x="2194" y="210" width="280" height="150" as="geometry" />
        </mxCell>
        <mxCell id="E47bJIEnCqPPnaEcUkM_-60" value="&lt;u&gt;&lt;font style=&quot;font-size: 36px;&quot;&gt;MÃ DỰ ÁN&lt;/font&gt;&lt;/u&gt;" style="ellipse;whiteSpace=wrap;html=1;" parent="WIyWlLk6GJQsqaUBKTNV-1" vertex="1">
          <mxGeometry x="1774" y="101" width="310" height="130" as="geometry" />
        </mxCell>
        <mxCell id="E47bJIEnCqPPnaEcUkM_-61" value="&lt;font style=&quot;font-size: 36px;&quot;&gt;(THỜI GIAN)&lt;/font&gt;" style="ellipse;whiteSpace=wrap;html=1;" parent="WIyWlLk6GJQsqaUBKTNV-1" vertex="1">
          <mxGeometry x="1995" y="-234" width="300" height="120" as="geometry" />
        </mxCell>
        <mxCell id="E47bJIEnCqPPnaEcUkM_-62" value="&lt;font style=&quot;font-size: 36px;&quot;&gt;NGÀY BĐ&lt;/font&gt;" style="ellipse;whiteSpace=wrap;html=1;" parent="WIyWlLk6GJQsqaUBKTNV-1" vertex="1">
          <mxGeometry x="1664" y="-389" width="340" height="155" as="geometry" />
        </mxCell>
        <mxCell id="E47bJIEnCqPPnaEcUkM_-63" value="&lt;font style=&quot;font-size: 36px;&quot;&gt;NGÀY KT&lt;/font&gt;" style="ellipse;whiteSpace=wrap;html=1;" parent="WIyWlLk6GJQsqaUBKTNV-1" vertex="1">
          <mxGeometry x="2054" y="-444" width="320" height="140" as="geometry" />
        </mxCell>
        <mxCell id="E47bJIEnCqPPnaEcUkM_-64" value="&lt;font style=&quot;font-size: 36px;&quot;&gt;TÊN DỰ ÁN&lt;/font&gt;" style="ellipse;whiteSpace=wrap;html=1;" parent="WIyWlLk6GJQsqaUBKTNV-1" vertex="1">
          <mxGeometry x="1844" y="-74" width="310" height="130" as="geometry" />
        </mxCell>
        <mxCell id="E47bJIEnCqPPnaEcUkM_-65" value="&lt;font style=&quot;font-size: 36px;&quot;&gt;CHI PHÍ&lt;/font&gt;" style="ellipse;whiteSpace=wrap;html=1;" parent="WIyWlLk6GJQsqaUBKTNV-1" vertex="1">
          <mxGeometry x="2334" y="-240" width="300" height="120" as="geometry" />
        </mxCell>
        <mxCell id="E47bJIEnCqPPnaEcUkM_-66" value="&lt;font style=&quot;font-size: 36px;&quot;&gt;TIẾN ĐỘ&lt;/font&gt;" style="ellipse;whiteSpace=wrap;html=1;" parent="WIyWlLk6GJQsqaUBKTNV-1" vertex="1">
          <mxGeometry x="2444" y="-74" width="320" height="130" as="geometry" />
        </mxCell>
        <mxCell id="E47bJIEnCqPPnaEcUkM_-67" value="&lt;font style=&quot;font-size: 36px;&quot;&gt;GIAI ĐOẠN&lt;/font&gt;" style="ellipse;whiteSpace=wrap;html=1;" parent="WIyWlLk6GJQsqaUBKTNV-1" vertex="1">
          <mxGeometry x="2544" y="80" width="302" height="130" as="geometry" />
        </mxCell>
        <mxCell id="E47bJIEnCqPPnaEcUkM_-68" value="" style="endArrow=none;html=1;rounded=0;entryX=0.5;entryY=0;entryDx=0;entryDy=0;exitX=1;exitY=1;exitDx=0;exitDy=0;" parent="WIyWlLk6GJQsqaUBKTNV-1" source="E47bJIEnCqPPnaEcUkM_-60" target="E47bJIEnCqPPnaEcUkM_-59" edge="1">
          <mxGeometry width="50" height="50" relative="1" as="geometry">
            <mxPoint x="1794" y="20" as="sourcePoint" />
            <mxPoint x="1844" y="-30" as="targetPoint" />
          </mxGeometry>
        </mxCell>
        <mxCell id="E47bJIEnCqPPnaEcUkM_-69" value="" style="endArrow=none;html=1;rounded=0;exitX=0.5;exitY=1;exitDx=0;exitDy=0;entryX=0.5;entryY=0;entryDx=0;entryDy=0;" parent="WIyWlLk6GJQsqaUBKTNV-1" source="E47bJIEnCqPPnaEcUkM_-61" target="E47bJIEnCqPPnaEcUkM_-59" edge="1">
          <mxGeometry width="50" height="50" relative="1" as="geometry">
            <mxPoint x="1526" y="238" as="sourcePoint" />
            <mxPoint x="1754" y="230" as="targetPoint" />
          </mxGeometry>
        </mxCell>
        <mxCell id="E47bJIEnCqPPnaEcUkM_-70" value="" style="endArrow=none;html=1;rounded=0;exitX=1;exitY=1;exitDx=0;exitDy=0;entryX=0;entryY=0;entryDx=0;entryDy=0;" parent="WIyWlLk6GJQsqaUBKTNV-1" source="E47bJIEnCqPPnaEcUkM_-62" target="E47bJIEnCqPPnaEcUkM_-61" edge="1">
          <mxGeometry width="50" height="50" relative="1" as="geometry">
            <mxPoint x="1646" y="158" as="sourcePoint" />
            <mxPoint x="1754" y="270" as="targetPoint" />
          </mxGeometry>
        </mxCell>
        <mxCell id="E47bJIEnCqPPnaEcUkM_-71" value="" style="endArrow=none;html=1;rounded=0;exitX=0.5;exitY=1;exitDx=0;exitDy=0;entryX=0.5;entryY=0;entryDx=0;entryDy=0;" parent="WIyWlLk6GJQsqaUBKTNV-1" source="E47bJIEnCqPPnaEcUkM_-63" target="E47bJIEnCqPPnaEcUkM_-61" edge="1">
          <mxGeometry width="50" height="50" relative="1" as="geometry">
            <mxPoint x="1656" y="168" as="sourcePoint" />
            <mxPoint x="1764" y="280" as="targetPoint" />
          </mxGeometry>
        </mxCell>
        <mxCell id="E47bJIEnCqPPnaEcUkM_-72" value="" style="endArrow=none;html=1;rounded=0;exitX=1;exitY=1;exitDx=0;exitDy=0;entryX=0.5;entryY=0;entryDx=0;entryDy=0;" parent="WIyWlLk6GJQsqaUBKTNV-1" source="E47bJIEnCqPPnaEcUkM_-64" target="E47bJIEnCqPPnaEcUkM_-59" edge="1">
          <mxGeometry width="50" height="50" relative="1" as="geometry">
            <mxPoint x="1666" y="178" as="sourcePoint" />
            <mxPoint x="1714" y="160" as="targetPoint" />
          </mxGeometry>
        </mxCell>
        <mxCell id="E47bJIEnCqPPnaEcUkM_-73" value="" style="endArrow=none;html=1;rounded=0;exitX=0.5;exitY=1;exitDx=0;exitDy=0;entryX=0.5;entryY=0;entryDx=0;entryDy=0;" parent="WIyWlLk6GJQsqaUBKTNV-1" source="E47bJIEnCqPPnaEcUkM_-65" target="E47bJIEnCqPPnaEcUkM_-59" edge="1">
          <mxGeometry width="50" height="50" relative="1" as="geometry">
            <mxPoint x="1676" y="188" as="sourcePoint" />
            <mxPoint x="1784" y="300" as="targetPoint" />
          </mxGeometry>
        </mxCell>
        <mxCell id="E47bJIEnCqPPnaEcUkM_-74" value="" style="endArrow=none;html=1;rounded=0;exitX=0;exitY=1;exitDx=0;exitDy=0;entryX=0.5;entryY=0;entryDx=0;entryDy=0;" parent="WIyWlLk6GJQsqaUBKTNV-1" source="E47bJIEnCqPPnaEcUkM_-66" target="E47bJIEnCqPPnaEcUkM_-59" edge="1">
          <mxGeometry width="50" height="50" relative="1" as="geometry">
            <mxPoint x="1686" y="198" as="sourcePoint" />
            <mxPoint x="1794" y="310" as="targetPoint" />
          </mxGeometry>
        </mxCell>
        <mxCell id="E47bJIEnCqPPnaEcUkM_-75" value="" style="endArrow=none;html=1;rounded=0;exitX=0;exitY=0.5;exitDx=0;exitDy=0;entryX=0.5;entryY=0;entryDx=0;entryDy=0;" parent="WIyWlLk6GJQsqaUBKTNV-1" source="E47bJIEnCqPPnaEcUkM_-67" target="E47bJIEnCqPPnaEcUkM_-59" edge="1">
          <mxGeometry width="50" height="50" relative="1" as="geometry">
            <mxPoint x="1696" y="208" as="sourcePoint" />
            <mxPoint x="1804" y="320" as="targetPoint" />
          </mxGeometry>
        </mxCell>
        <mxCell id="E47bJIEnCqPPnaEcUkM_-82" value="" style="endArrow=none;html=1;rounded=0;entryX=0;entryY=0.5;entryDx=0;entryDy=0;exitX=1;exitY=0.5;exitDx=0;exitDy=0;" parent="WIyWlLk6GJQsqaUBKTNV-1" source="E47bJIEnCqPPnaEcUkM_-85" target="E47bJIEnCqPPnaEcUkM_-80" edge="1">
          <mxGeometry width="50" height="50" relative="1" as="geometry">
            <mxPoint x="2564" y="594" as="sourcePoint" />
            <mxPoint x="2261" y="642" as="targetPoint" />
          </mxGeometry>
        </mxCell>
        <mxCell id="E47bJIEnCqPPnaEcUkM_-83" value="" style="group;rounded=0;strokeColor=default;fontFamily=Helvetica;fontSize=12;fontColor=default;fillColor=default;html=1;" parent="WIyWlLk6GJQsqaUBKTNV-1" vertex="1" connectable="0">
          <mxGeometry x="2194" y="614" width="280" height="180" as="geometry" />
        </mxCell>
        <mxCell id="E47bJIEnCqPPnaEcUkM_-85" value="&lt;font style=&quot;font-size: 48px;&quot;&gt;TEAM&lt;/font&gt;" style="rounded=0;whiteSpace=wrap;html=1;movable=1;resizable=1;rotatable=1;deletable=1;editable=1;locked=0;connectable=1;strokeColor=default;fontFamily=Helvetica;fontSize=12;fontColor=default;fillColor=default;" parent="E47bJIEnCqPPnaEcUkM_-83" vertex="1">
          <mxGeometry x="10" y="10" width="256" height="153.63" as="geometry" />
        </mxCell>
        <mxCell id="E47bJIEnCqPPnaEcUkM_-87" value="&lt;span style=&quot;font-size: 48px;&quot;&gt;CÔNG VIỆC&lt;/span&gt;" style="rounded=0;whiteSpace=wrap;html=1;" parent="WIyWlLk6GJQsqaUBKTNV-1" vertex="1">
          <mxGeometry x="2170" y="1121" width="325" height="160" as="geometry" />
        </mxCell>
        <mxCell id="E47bJIEnCqPPnaEcUkM_-88" value="&lt;font style=&quot;font-size: 36px;&quot;&gt;TRẠNG THÁI&lt;/font&gt;" style="ellipse;whiteSpace=wrap;html=1;" parent="WIyWlLk6GJQsqaUBKTNV-1" vertex="1">
          <mxGeometry x="2520" y="1530" width="278" height="160" as="geometry" />
        </mxCell>
        <mxCell id="E47bJIEnCqPPnaEcUkM_-92" value="&lt;font style=&quot;font-size: 36px;&quot;&gt;CV TIÊN QUYẾT&lt;/font&gt;" style="ellipse;whiteSpace=wrap;html=1;" parent="WIyWlLk6GJQsqaUBKTNV-1" vertex="1">
          <mxGeometry x="2196" y="1591" width="285" height="160" as="geometry" />
        </mxCell>
        <mxCell id="E47bJIEnCqPPnaEcUkM_-94" value="&lt;u&gt;&lt;font style=&quot;font-size: 36px;&quot;&gt;MÃ CÔNG VIỆC&lt;/font&gt;&lt;/u&gt;" style="ellipse;whiteSpace=wrap;html=1;" parent="WIyWlLk6GJQsqaUBKTNV-1" vertex="1">
          <mxGeometry x="1695" y="1290" width="300" height="160" as="geometry" />
        </mxCell>
        <mxCell id="E47bJIEnCqPPnaEcUkM_-95" value="&lt;font style=&quot;font-size: 36px;&quot;&gt;TÊN CÔNG VIỆC&lt;/font&gt;" style="ellipse;whiteSpace=wrap;html=1;" parent="WIyWlLk6GJQsqaUBKTNV-1" vertex="1">
          <mxGeometry x="1900" y="1490" width="310" height="170" as="geometry" />
        </mxCell>
        <mxCell id="E47bJIEnCqPPnaEcUkM_-96" value="" style="endArrow=none;html=1;rounded=0;entryX=0.75;entryY=1;entryDx=0;entryDy=0;exitX=0;exitY=0;exitDx=0;exitDy=0;" parent="WIyWlLk6GJQsqaUBKTNV-1" source="E47bJIEnCqPPnaEcUkM_-88" target="E47bJIEnCqPPnaEcUkM_-87" edge="1">
          <mxGeometry width="50" height="50" relative="1" as="geometry">
            <mxPoint x="2497.5" y="996" as="sourcePoint" />
            <mxPoint x="2547.5" y="946" as="targetPoint" />
          </mxGeometry>
        </mxCell>
        <mxCell id="E47bJIEnCqPPnaEcUkM_-100" value="" style="endArrow=none;html=1;rounded=0;exitX=0.5;exitY=0;exitDx=0;exitDy=0;entryX=0.5;entryY=1;entryDx=0;entryDy=0;" parent="WIyWlLk6GJQsqaUBKTNV-1" source="E47bJIEnCqPPnaEcUkM_-92" target="E47bJIEnCqPPnaEcUkM_-87" edge="1">
          <mxGeometry width="50" height="50" relative="1" as="geometry">
            <mxPoint x="2369.5" y="1154" as="sourcePoint" />
            <mxPoint x="2417.5" y="1136" as="targetPoint" />
          </mxGeometry>
        </mxCell>
        <mxCell id="E47bJIEnCqPPnaEcUkM_-102" value="" style="endArrow=none;html=1;rounded=0;exitX=1;exitY=0;exitDx=0;exitDy=0;entryX=0;entryY=1;entryDx=0;entryDy=0;" parent="WIyWlLk6GJQsqaUBKTNV-1" source="E47bJIEnCqPPnaEcUkM_-94" target="E47bJIEnCqPPnaEcUkM_-87" edge="1">
          <mxGeometry width="50" height="50" relative="1" as="geometry">
            <mxPoint x="2389.5" y="1174" as="sourcePoint" />
            <mxPoint x="2497.5" y="1286" as="targetPoint" />
          </mxGeometry>
        </mxCell>
        <mxCell id="E47bJIEnCqPPnaEcUkM_-103" value="" style="endArrow=none;html=1;rounded=0;exitX=0.5;exitY=0;exitDx=0;exitDy=0;entryX=0.25;entryY=1;entryDx=0;entryDy=0;" parent="WIyWlLk6GJQsqaUBKTNV-1" source="E47bJIEnCqPPnaEcUkM_-95" target="E47bJIEnCqPPnaEcUkM_-87" edge="1">
          <mxGeometry width="50" height="50" relative="1" as="geometry">
            <mxPoint x="2399.5" y="1184" as="sourcePoint" />
            <mxPoint x="2507.5" y="1296" as="targetPoint" />
          </mxGeometry>
        </mxCell>
        <mxCell id="E47bJIEnCqPPnaEcUkM_-109" value="&lt;font style=&quot;font-size: 48px;&quot;&gt;TÀI NGUYÊN&lt;/font&gt;" style="rounded=0;whiteSpace=wrap;html=1;" parent="WIyWlLk6GJQsqaUBKTNV-1" vertex="1">
          <mxGeometry x="2920" y="198" width="380" height="170" as="geometry" />
        </mxCell>
        <mxCell id="E47bJIEnCqPPnaEcUkM_-110" value="&lt;u&gt;&lt;font style=&quot;font-size: 36px;&quot;&gt;MÃ TÀI NGUYÊN&lt;/font&gt;&lt;/u&gt;" style="ellipse;whiteSpace=wrap;html=1;" parent="WIyWlLk6GJQsqaUBKTNV-1" vertex="1">
          <mxGeometry x="3400" y="-170" width="370" height="140" as="geometry" />
        </mxCell>
        <mxCell id="E47bJIEnCqPPnaEcUkM_-111" value="&lt;font style=&quot;font-size: 36px;&quot;&gt;TÊN TÀI NGUYÊN&lt;/font&gt;" style="ellipse;whiteSpace=wrap;html=1;" parent="WIyWlLk6GJQsqaUBKTNV-1" vertex="1">
          <mxGeometry x="3600" y="10" width="420" height="140" as="geometry" />
        </mxCell>
        <mxCell id="E47bJIEnCqPPnaEcUkM_-112" value="&lt;font style=&quot;font-size: 36px;&quot;&gt;LOẠI TÀI NGUYÊN&lt;/font&gt;" style="ellipse;whiteSpace=wrap;html=1;" parent="WIyWlLk6GJQsqaUBKTNV-1" vertex="1">
          <mxGeometry x="3560" y="250" width="390" height="150" as="geometry" />
        </mxCell>
        <mxCell id="E47bJIEnCqPPnaEcUkM_-114" value="" style="endArrow=none;html=1;rounded=0;exitX=0;exitY=1;exitDx=0;exitDy=0;entryX=1;entryY=0;entryDx=0;entryDy=0;" parent="WIyWlLk6GJQsqaUBKTNV-1" source="E47bJIEnCqPPnaEcUkM_-110" target="E47bJIEnCqPPnaEcUkM_-109" edge="1">
          <mxGeometry width="50" height="50" relative="1" as="geometry">
            <mxPoint x="2361" y="116" as="sourcePoint" />
            <mxPoint x="2469" y="228" as="targetPoint" />
          </mxGeometry>
        </mxCell>
        <mxCell id="E47bJIEnCqPPnaEcUkM_-115" value="" style="endArrow=none;html=1;rounded=0;exitX=0;exitY=1;exitDx=0;exitDy=0;entryX=1;entryY=0.25;entryDx=0;entryDy=0;" parent="WIyWlLk6GJQsqaUBKTNV-1" source="E47bJIEnCqPPnaEcUkM_-111" target="E47bJIEnCqPPnaEcUkM_-109" edge="1">
          <mxGeometry width="50" height="50" relative="1" as="geometry">
            <mxPoint x="2371" y="126" as="sourcePoint" />
            <mxPoint x="2479" y="238" as="targetPoint" />
          </mxGeometry>
        </mxCell>
        <mxCell id="E47bJIEnCqPPnaEcUkM_-116" value="" style="endArrow=none;html=1;rounded=0;exitX=0;exitY=0.5;exitDx=0;exitDy=0;entryX=1;entryY=0.5;entryDx=0;entryDy=0;" parent="WIyWlLk6GJQsqaUBKTNV-1" source="E47bJIEnCqPPnaEcUkM_-112" target="E47bJIEnCqPPnaEcUkM_-109" edge="1">
          <mxGeometry width="50" height="50" relative="1" as="geometry">
            <mxPoint x="2381" y="136" as="sourcePoint" />
            <mxPoint x="2489" y="248" as="targetPoint" />
          </mxGeometry>
        </mxCell>
        <mxCell id="E47bJIEnCqPPnaEcUkM_-123" value="&lt;span style=&quot;font-size: 48px;&quot;&gt;SPRINT&lt;/span&gt;" style="rounded=0;whiteSpace=wrap;html=1;" parent="WIyWlLk6GJQsqaUBKTNV-1" vertex="1">
          <mxGeometry x="2920" y="600" width="370" height="171" as="geometry" />
        </mxCell>
        <mxCell id="E47bJIEnCqPPnaEcUkM_-124" value="&lt;font style=&quot;font-size: 36px;&quot;&gt;MÃ SPRINT&lt;/font&gt;" style="ellipse;whiteSpace=wrap;html=1;" parent="WIyWlLk6GJQsqaUBKTNV-1" vertex="1">
          <mxGeometry x="3590" y="520" width="380" height="152" as="geometry" />
        </mxCell>
        <mxCell id="E47bJIEnCqPPnaEcUkM_-125" value="&lt;font style=&quot;font-size: 36px;&quot;&gt;NỘI DUNG&lt;/font&gt;" style="ellipse;whiteSpace=wrap;html=1;" parent="WIyWlLk6GJQsqaUBKTNV-1" vertex="1">
          <mxGeometry x="3680" y="762" width="380" height="148" as="geometry" />
        </mxCell>
        <mxCell id="E47bJIEnCqPPnaEcUkM_-127" value="" style="endArrow=none;html=1;rounded=0;exitX=0;exitY=1;exitDx=0;exitDy=0;entryX=1;entryY=0.25;entryDx=0;entryDy=0;" parent="WIyWlLk6GJQsqaUBKTNV-1" source="E47bJIEnCqPPnaEcUkM_-124" target="E47bJIEnCqPPnaEcUkM_-123" edge="1">
          <mxGeometry width="50" height="50" relative="1" as="geometry">
            <mxPoint x="3175" y="669" as="sourcePoint" />
            <mxPoint x="3283" y="781" as="targetPoint" />
          </mxGeometry>
        </mxCell>
        <mxCell id="E47bJIEnCqPPnaEcUkM_-128" value="" style="endArrow=none;html=1;rounded=0;exitX=0;exitY=0.5;exitDx=0;exitDy=0;entryX=1;entryY=0.5;entryDx=0;entryDy=0;" parent="WIyWlLk6GJQsqaUBKTNV-1" source="E47bJIEnCqPPnaEcUkM_-125" target="E47bJIEnCqPPnaEcUkM_-123" edge="1">
          <mxGeometry width="50" height="50" relative="1" as="geometry">
            <mxPoint x="3185" y="679" as="sourcePoint" />
            <mxPoint x="3293" y="791" as="targetPoint" />
          </mxGeometry>
        </mxCell>
        <mxCell id="I9DkorBNGd35Bunjnrnz-1" value="&lt;font style=&quot;font-size: 36px;&quot;&gt;NỘI DUNG XIN NGHỈ&lt;/font&gt;" style="ellipse;whiteSpace=wrap;html=1;" vertex="1" parent="WIyWlLk6GJQsqaUBKTNV-1">
          <mxGeometry x="-730" y="994" width="340" height="175" as="geometry" />
        </mxCell>
        <mxCell id="I9DkorBNGd35Bunjnrnz-3" value="" style="endArrow=none;html=1;rounded=0;exitX=0;exitY=0.5;exitDx=0;exitDy=0;entryX=1;entryY=0.5;entryDx=0;entryDy=0;" edge="1" parent="WIyWlLk6GJQsqaUBKTNV-1" source="I9DkorBNGd35Bunjnrnz-7" target="I9DkorBNGd35Bunjnrnz-1">
          <mxGeometry width="50" height="50" relative="1" as="geometry">
            <mxPoint x="-166" y="1076.5" as="sourcePoint" />
            <mxPoint x="110" y="1130" as="targetPoint" />
          </mxGeometry>
        </mxCell>
        <mxCell id="I9DkorBNGd35Bunjnrnz-4" value="" style="endArrow=none;html=1;rounded=0;exitX=0;exitY=0.25;exitDx=0;exitDy=0;entryX=1;entryY=0.5;entryDx=0;entryDy=0;" edge="1" parent="WIyWlLk6GJQsqaUBKTNV-1" source="I9DkorBNGd35Bunjnrnz-7" target="I9DkorBNGd35Bunjnrnz-2">
          <mxGeometry width="50" height="50" relative="1" as="geometry">
            <mxPoint x="-166" y="1040.25" as="sourcePoint" />
            <mxPoint x="-380" y="810" as="targetPoint" />
          </mxGeometry>
        </mxCell>
        <mxCell id="I9DkorBNGd35Bunjnrnz-5" value="" style="group" vertex="1" connectable="0" parent="WIyWlLk6GJQsqaUBKTNV-1">
          <mxGeometry x="1196" y="1530" width="350" height="180" as="geometry" />
        </mxCell>
        <mxCell id="E47bJIEnCqPPnaEcUkM_-47" value="&lt;font style=&quot;font-size: 36px;&quot;&gt;TÊN NHIỆM VỤ&lt;/font&gt;" style="ellipse;whiteSpace=wrap;html=1;rounded=0;strokeColor=default;fontFamily=Helvetica;fontSize=12;fontColor=default;fillColor=default;" parent="I9DkorBNGd35Bunjnrnz-5" vertex="1">
          <mxGeometry width="350" height="180" as="geometry" />
        </mxCell>
        <mxCell id="E47bJIEnCqPPnaEcUkM_-77" value="" style="endArrow=none;dashed=1;html=1;rounded=0;fontFamily=Helvetica;fontSize=12;fontColor=default;" parent="I9DkorBNGd35Bunjnrnz-5" edge="1">
          <mxGeometry width="50" height="50" relative="1" as="geometry">
            <mxPoint x="326.6666666666667" y="127.28571428571429" as="sourcePoint" />
            <mxPoint x="23.333333333333336" y="127.65857142857139" as="targetPoint" />
          </mxGeometry>
        </mxCell>
        <mxCell id="I9DkorBNGd35Bunjnrnz-6" value="" style="group" vertex="1" connectable="0" parent="WIyWlLk6GJQsqaUBKTNV-1">
          <mxGeometry x="70" y="910" width="200" height="110" as="geometry" />
        </mxCell>
        <mxCell id="I9DkorBNGd35Bunjnrnz-7" value="" style="rounded=0;whiteSpace=wrap;html=1;movable=1;resizable=1;rotatable=1;deletable=1;editable=1;locked=0;connectable=1;" vertex="1" parent="I9DkorBNGd35Bunjnrnz-6">
          <mxGeometry x="-220" y="-70" width="420" height="180" as="geometry" />
        </mxCell>
        <mxCell id="I9DkorBNGd35Bunjnrnz-8" value="&lt;font style=&quot;font-size: 48px;&quot;&gt;ĐIỂM DANH NGÀY NGHỈ&lt;/font&gt;" style="rounded=0;whiteSpace=wrap;html=1;movable=1;resizable=1;rotatable=1;deletable=1;editable=1;locked=0;connectable=1;" vertex="1" parent="I9DkorBNGd35Bunjnrnz-6">
          <mxGeometry x="-210" y="-60" width="400" height="160" as="geometry" />
        </mxCell>
        <mxCell id="I9DkorBNGd35Bunjnrnz-10" value="" style="group" vertex="1" connectable="0" parent="WIyWlLk6GJQsqaUBKTNV-1">
          <mxGeometry x="-730" y="700" width="341" height="170" as="geometry" />
        </mxCell>
        <mxCell id="I9DkorBNGd35Bunjnrnz-2" value="&lt;span style=&quot;font-size: 36px;&quot;&gt;NGÀY&lt;/span&gt;" style="ellipse;whiteSpace=wrap;html=1;" vertex="1" parent="I9DkorBNGd35Bunjnrnz-10">
          <mxGeometry width="341" height="170" as="geometry" />
        </mxCell>
        <mxCell id="I9DkorBNGd35Bunjnrnz-9" value="" style="endArrow=none;dashed=1;html=1;rounded=0;" edge="1" parent="I9DkorBNGd35Bunjnrnz-10">
          <mxGeometry width="50" height="50" relative="1" as="geometry">
            <mxPoint x="93" y="104" as="sourcePoint" />
            <mxPoint x="273" y="104" as="targetPoint" />
          </mxGeometry>
        </mxCell>
        <mxCell id="I9DkorBNGd35Bunjnrnz-11" value="&lt;font style=&quot;font-size: 36px;&quot;&gt;TIẾN ĐỘ (%)&lt;/font&gt;" style="ellipse;whiteSpace=wrap;html=1;" vertex="1" parent="WIyWlLk6GJQsqaUBKTNV-1">
          <mxGeometry x="2710" y="1320" width="278" height="160" as="geometry" />
        </mxCell>
        <mxCell id="I9DkorBNGd35Bunjnrnz-12" value="" style="endArrow=none;html=1;rounded=0;entryX=1;entryY=1;entryDx=0;entryDy=0;exitX=0;exitY=0;exitDx=0;exitDy=0;" edge="1" parent="WIyWlLk6GJQsqaUBKTNV-1" source="I9DkorBNGd35Bunjnrnz-11" target="E47bJIEnCqPPnaEcUkM_-87">
          <mxGeometry width="50" height="50" relative="1" as="geometry">
            <mxPoint x="2512" y="1774" as="sourcePoint" />
            <mxPoint x="2424" y="1291" as="targetPoint" />
          </mxGeometry>
        </mxCell>
        <mxCell id="I9DkorBNGd35Bunjnrnz-14" value="&lt;font style=&quot;font-size: 36px;&quot;&gt;NGÀY BĐ&lt;/font&gt;" style="ellipse;whiteSpace=wrap;html=1;" vertex="1" parent="WIyWlLk6GJQsqaUBKTNV-1">
          <mxGeometry x="3580" y="1050" width="380" height="148" as="geometry" />
        </mxCell>
        <mxCell id="I9DkorBNGd35Bunjnrnz-15" value="&lt;font style=&quot;font-size: 36px;&quot;&gt;NGÀY KT&lt;/font&gt;" style="ellipse;whiteSpace=wrap;html=1;" vertex="1" parent="WIyWlLk6GJQsqaUBKTNV-1">
          <mxGeometry x="3130" y="1060" width="380" height="148" as="geometry" />
        </mxCell>
        <mxCell id="I9DkorBNGd35Bunjnrnz-16" value="" style="endArrow=none;html=1;rounded=0;exitX=0.5;exitY=0;exitDx=0;exitDy=0;entryX=0.75;entryY=1;entryDx=0;entryDy=0;" edge="1" parent="WIyWlLk6GJQsqaUBKTNV-1" source="I9DkorBNGd35Bunjnrnz-15" target="E47bJIEnCqPPnaEcUkM_-123">
          <mxGeometry width="50" height="50" relative="1" as="geometry">
            <mxPoint x="3650" y="874" as="sourcePoint" />
            <mxPoint x="3300" y="696" as="targetPoint" />
          </mxGeometry>
        </mxCell>
        <mxCell id="I9DkorBNGd35Bunjnrnz-17" value="" style="endArrow=none;html=1;rounded=0;exitX=0;exitY=0;exitDx=0;exitDy=0;entryX=1;entryY=1;entryDx=0;entryDy=0;" edge="1" parent="WIyWlLk6GJQsqaUBKTNV-1" source="I9DkorBNGd35Bunjnrnz-14" target="E47bJIEnCqPPnaEcUkM_-123">
          <mxGeometry width="50" height="50" relative="1" as="geometry">
            <mxPoint x="3660" y="884" as="sourcePoint" />
            <mxPoint x="3310" y="706" as="targetPoint" />
          </mxGeometry>
        </mxCell>
        <mxCell id="I9DkorBNGd35Bunjnrnz-21" value="" style="group" vertex="1" connectable="0" parent="WIyWlLk6GJQsqaUBKTNV-1">
          <mxGeometry x="2525" y="828" width="370" height="176" as="geometry" />
        </mxCell>
        <mxCell id="E47bJIEnCqPPnaEcUkM_-80" value="&lt;font style=&quot;font-size: 36px;&quot;&gt;TÊN NHÓM&lt;/font&gt;" style="ellipse;whiteSpace=wrap;html=1;" parent="I9DkorBNGd35Bunjnrnz-21" vertex="1">
          <mxGeometry width="370" height="176" as="geometry" />
        </mxCell>
        <mxCell id="I9DkorBNGd35Bunjnrnz-20" value="" style="endArrow=none;dashed=1;html=1;rounded=0;" edge="1" parent="I9DkorBNGd35Bunjnrnz-21">
          <mxGeometry width="50" height="50" relative="1" as="geometry">
            <mxPoint x="75" y="122" as="sourcePoint" />
            <mxPoint x="295" y="122" as="targetPoint" />
          </mxGeometry>
        </mxCell>
      </root>
    </mxGraphModel>
  </diagram>
</mxfile>
